<svg width="144" height="40" viewBox="0 0 144 40" fill="none" xmlns="http://www.w3.org/2000/svg">
<path d="M23.2485 35.1618C23.2485 34.3614 22.9274 33.5938 22.3557 33.0278C21.7841 32.4618 21.0088 32.1438 20.2004 32.1438C19.392 32.1438 18.6167 32.4618 18.0451 33.0278C17.4735 33.5938 17.1523 34.3614 17.1523 35.1618V36.982H17.7727C18.056 37.3541 18.4228 37.6559 18.844 37.8638C19.2653 38.0717 19.7295 38.1799 20.2002 38.1799C20.6708 38.1799 21.1351 38.0717 21.5563 37.8638C21.9776 37.6559 22.3443 37.3541 22.6277 36.982H23.2485V35.1618Z" fill="#E40046"/>
<path d="M4.88704 16.9813H3.0487V17.596C2.6729 17.8765 2.36803 18.2397 2.15808 18.6568C1.94814 19.0738 1.83887 19.5335 1.83887 19.9995C1.83887 20.4655 1.94814 20.9252 2.15808 21.3423C2.36803 21.7593 2.6729 22.1225 3.0487 22.403V23.0177H4.88704C5.6955 23.0177 6.47085 22.6997 7.04252 22.1337C7.61419 21.5677 7.93535 20.8 7.93535 19.9995C7.93535 19.199 7.61419 18.4313 7.04252 17.8653C6.47085 17.2993 5.6955 16.9813 4.88704 16.9813Z" fill="#E40046"/>
<path d="M13.5734 9.17119L10.2272 5.85803L5.91602 10.1262L9.26222 13.4393C9.83466 14.0015 10.6088 14.3163 11.415 14.3147C12.2213 14.3131 12.9941 13.9953 13.5643 13.4308C14.1345 12.8663 14.4556 12.1012 14.4573 11.3029C14.459 10.5045 14.1411 9.73804 13.5734 9.17119Z" fill="#0047BB"/>
<path d="M31.1365 26.5602C30.564 25.998 29.7899 25.6833 28.9836 25.6849C28.1773 25.6864 27.4045 26.0043 26.8344 26.5687C26.2642 27.1332 25.9431 27.8984 25.9414 28.6967C25.9397 29.495 26.2575 30.2615 26.8253 30.8284L30.172 34.1415L34.4827 29.8734L31.1365 26.5602Z" fill="#0047BB"/>
<path d="M30.1721 5.85803L26.8254 9.17119C26.5405 9.45105 26.3141 9.78388 26.1594 10.1506C26.0047 10.5173 25.9246 10.9106 25.9238 11.308C25.923 11.7054 26.0015 12.099 26.1547 12.4663C26.308 12.8336 26.533 13.1673 26.8168 13.4483C27.1006 13.7293 27.4377 13.952 27.8086 14.1037C28.1796 14.2554 28.5772 14.3331 28.9786 14.3322C29.3799 14.3314 29.7772 14.2521 30.1475 14.0988C30.5178 13.9456 30.854 13.7215 31.1366 13.4393L34.4828 10.1262L30.1721 5.85803Z" fill="#0047BB"/>
<path d="M34.4823 34.1409C34.056 34.563 33.5128 34.8505 32.9215 34.967C32.3301 35.0835 31.7172 35.0238 31.1602 34.7953C30.6032 34.5669 30.1271 34.18 29.7921 33.6837C29.4571 33.1873 29.2783 32.6038 29.2783 32.0068C29.2783 31.4099 29.4571 30.8263 29.7921 30.33C30.1271 29.8336 30.6032 29.4468 31.1602 29.2183C31.7172 28.9899 32.3301 28.9302 32.9215 29.0466C33.5128 29.1631 34.056 29.4506 34.4823 29.8728C34.7653 30.153 34.9899 30.4857 35.1431 30.8519C35.2963 31.218 35.3751 31.6105 35.3751 32.0068C35.3751 32.4032 35.2963 32.7956 35.1431 33.1618C34.9899 33.528 34.7653 33.8607 34.4823 34.1409Z" fill="#201747"/>
<path d="M39.0322 19.9995C39.0322 19.5335 38.9229 19.0738 38.7129 18.6567C38.503 18.2396 38.198 17.8765 37.8222 17.596V16.9813H35.9839C35.1754 16.9813 34.4 17.2993 33.8284 17.8653C33.2567 18.4313 32.9355 19.199 32.9355 19.9995C32.9355 20.8 33.2567 21.5677 33.8284 22.1337C34.4 22.6997 35.1754 23.0177 35.9839 23.0177H37.8222V22.403C38.1981 22.1225 38.503 21.7594 38.713 21.3423C38.923 20.9252 39.0322 20.4655 39.0322 19.9995Z" fill="#E40046"/>
<path d="M22.6272 3.01866C22.3438 2.64657 21.9771 2.3447 21.5558 2.13684C21.1346 1.92897 20.6703 1.82077 20.1997 1.82077C19.729 1.82077 19.2648 1.92897 18.8435 2.13684C18.4223 2.3447 18.0555 2.64657 17.7722 3.01866H17.1514V4.94588H17.157C17.1908 5.7322 17.5337 6.4743 18.1125 7.01378C18.6912 7.55327 19.46 7.84742 20.2548 7.83345C21.0495 7.81948 21.8073 7.4985 22.3663 6.93902C22.9254 6.37953 23.2415 5.62585 23.2471 4.83884V3.01866H22.6272Z" fill="#E40046"/>
<path d="M5.91613 5.8572C6.34243 5.43506 6.88559 5.14757 7.47691 5.03108C8.06824 4.91459 8.68117 4.97434 9.2382 5.20277C9.79523 5.4312 10.2713 5.81805 10.6063 6.3144C10.9413 6.81075 11.1201 7.3943 11.1201 7.99126C11.1201 8.58822 10.9413 9.17178 10.6063 9.66813C10.2713 10.1645 9.79523 10.5513 9.2382 10.7798C8.68117 11.0082 8.06824 11.0679 7.47691 10.9515C6.88559 10.835 6.34243 10.5475 5.91613 10.1253C5.34455 9.55931 5.02344 8.79168 5.02344 7.99126C5.02344 7.19085 5.34455 6.42321 5.91613 5.8572Z" fill="#201747"/>
<path d="M0 19.9995C0 19.4026 0.17878 18.819 0.513733 18.3227C0.848686 17.8263 1.32477 17.4395 1.88177 17.211C2.43878 16.9826 3.05169 16.9228 3.64301 17.0393C4.23432 17.1557 4.77748 17.4432 5.20379 17.8653C5.63011 18.2874 5.92043 18.8252 6.03805 19.4107C6.15567 19.9962 6.0953 20.603 5.86459 21.1545C5.63387 21.706 5.24316 22.1774 4.74186 22.5091C4.24057 22.8407 3.65121 23.0177 3.04831 23.0177C2.23985 23.0177 1.4645 22.6997 0.89283 22.1337C0.321161 21.5677 0 20.8 0 19.9995" fill="#201747"/>
<path d="M13.5734 26.561C13.2903 26.2807 12.9543 26.0584 12.5844 25.9067C12.2145 25.755 11.8181 25.6769 11.4178 25.6769C11.0175 25.6769 10.6211 25.755 10.2512 25.9067C9.88134 26.0584 9.54529 26.2807 9.26222 26.561L5.91602 29.8742L10.2272 34.1423L13.5734 30.8291C13.8565 30.5489 14.081 30.2162 14.2342 29.85C14.3874 29.4839 14.4663 29.0914 14.4663 28.6951C14.4663 28.2987 14.3874 27.9063 14.2342 27.5401C14.081 27.1739 13.8565 26.8412 13.5734 26.561Z" fill="#0047BB"/>
<path d="M5.91617 34.1409C5.48988 33.7188 5.19959 33.181 5.08199 32.5955C4.96439 32.0101 5.02478 31.4032 5.2555 30.8517C5.48623 30.3003 5.87694 29.8289 6.37823 29.4973C6.87952 29.1656 7.46886 28.9886 8.07175 28.9886C8.67464 28.9886 9.26399 29.1656 9.76528 29.4973C10.2666 29.8289 10.6573 30.3003 10.888 30.8517C11.1187 31.4032 11.1791 32.0101 11.0615 32.5955C10.9439 33.181 10.6536 33.7188 10.2273 34.1409C9.9443 34.4213 9.60825 34.6437 9.23839 34.7954C8.86853 34.9471 8.4721 35.0252 8.07175 35.0252C7.6714 35.0252 7.27497 34.9471 6.90511 34.7954C6.53525 34.6437 6.1992 34.4213 5.91617 34.1409Z" fill="#201747"/>
<path d="M20.1987 40C19.596 39.9999 19.0068 39.8228 18.5056 39.4912C18.0045 39.1596 17.6139 38.6883 17.3833 38.1369C17.1527 37.5855 17.0923 36.9787 17.21 36.3934C17.3276 35.8081 17.6178 35.2704 18.0441 34.8484C18.4703 34.4264 19.0133 34.139 19.6045 34.0225C20.1957 33.9061 20.8085 33.9658 21.3654 34.1941C21.9223 34.4225 22.3983 34.8092 22.7332 35.3054C23.0681 35.8016 23.247 36.385 23.2471 36.9818C23.2471 37.7823 22.9259 38.55 22.3542 39.116C21.7826 39.682 21.0072 40 20.1987 40Z" fill="#201747"/>
<path d="M40.8701 19.9995C40.8701 20.5964 40.6913 21.18 40.3563 21.6763C40.0214 22.1727 39.5453 22.5595 38.9883 22.788C38.4313 23.0164 37.8184 23.0762 37.2271 22.9597C36.6357 22.8433 36.0926 22.5558 35.6663 22.1337C35.24 21.7116 34.9496 21.1738 34.832 20.5883C34.7144 20.0029 34.7748 19.396 35.0055 18.8445C35.2362 18.293 35.6269 17.8216 36.1282 17.49C36.6295 17.1583 37.2189 16.9813 37.8218 16.9813C38.6302 16.9813 39.4056 17.2993 39.9772 17.8653C40.5489 18.4313 40.8701 19.199 40.8701 19.9995Z" fill="#201747"/>
<path d="M20.1987 3.62103e-08C20.8016 3.62103e-08 21.391 0.177015 21.8923 0.50866C22.3935 0.840305 22.7843 1.31168 23.015 1.86319C23.2457 2.4147 23.3061 3.02156 23.1884 3.60703C23.0708 4.19251 22.7805 4.7303 22.3542 5.1524C21.9279 5.57451 21.3847 5.86197 20.7934 5.97842C20.2021 6.09488 19.5892 6.03511 19.0322 5.80667C18.4752 5.57823 17.9991 5.19138 17.6641 4.69504C17.3292 4.19869 17.1504 3.61515 17.1504 3.01821C17.1503 2.62183 17.2291 2.22933 17.3823 1.86312C17.5355 1.4969 17.76 1.16415 18.0431 0.883876C18.3262 0.603597 18.6622 0.38128 19.0321 0.229622C19.402 0.077965 19.7984 -6.13648e-05 20.1987 3.62103e-08Z" fill="#201747"/>
<path d="M34.482 5.85712C34.9083 6.27921 35.1987 6.81701 35.3164 7.40249C35.434 7.98798 35.3737 8.59486 35.143 9.14639C34.9122 9.69791 34.5215 10.1693 34.0202 10.501C33.5189 10.8326 32.9296 11.0097 32.3266 11.0097C31.7237 11.0097 31.1343 10.8326 30.633 10.501C30.1317 10.1693 29.741 9.69791 29.5103 9.14639C29.2796 8.59486 29.2193 7.98798 29.3369 7.40249C29.4546 6.81701 29.7449 6.27921 30.1713 5.85712C30.4543 5.57684 30.7903 5.35451 31.1601 5.20282C31.53 5.05113 31.9263 4.97305 32.3266 4.97305C32.7269 4.97305 33.1233 5.05113 33.4931 5.20282C33.8629 5.35451 34.199 5.57684 34.482 5.85712Z" fill="#201747"/>
<path d="M53.9377 6.53338C53.9328 6.11374 54.0148 5.69756 54.1788 5.31057C54.3428 4.92357 54.5851 4.57398 54.8909 4.2834C55.1873 3.98423 55.541 3.74658 55.9313 3.58435C56.3216 3.42212 56.7406 3.33856 57.1638 3.33856C57.5871 3.33856 58.0061 3.42212 58.3964 3.58435C58.7867 3.74658 59.1403 3.98423 59.4367 4.2834C59.7386 4.57705 59.9784 4.92729 60.142 5.31367C60.3057 5.70006 60.39 6.11486 60.39 6.53385C60.39 6.95285 60.3057 7.36764 60.142 7.75403C59.9784 8.14042 59.7386 8.49066 59.4367 8.7843C59.1401 9.08307 58.7863 9.32035 58.3961 9.48233C58.0059 9.6443 57.587 9.72772 57.1638 9.72772C56.7407 9.72772 56.3218 9.6443 55.9316 9.48233C55.5413 9.32035 55.1876 9.08307 54.8909 8.7843C54.5853 8.49343 54.343 8.14365 54.179 7.75652C54.0151 7.3694 53.933 6.95313 53.9377 6.53338ZM54.9628 12.7853H59.3625V35.7262H54.9628V12.7853Z" fill="#201747"/>
<path d="M76.8126 16.5607H70.5069V26.9659C70.5069 27.6122 70.5229 28.2494 70.5548 28.8777C70.5761 29.4593 70.7001 30.0326 70.9212 30.5718C71.1238 31.0596 71.4636 31.4794 71.9003 31.7812C72.4821 32.1245 73.1555 32.2846 73.8312 32.2403C74.3722 32.2385 74.912 32.1901 75.4445 32.0957C75.9768 32.0064 76.4893 31.8262 76.9591 31.5631V35.5314C76.3272 35.8563 75.6395 36.0615 74.9315 36.1365C74.292 36.2335 73.6469 36.2901 73.0001 36.3059C71.6518 36.372 70.306 36.1322 69.0656 35.6049C68.2177 35.2099 67.5043 34.5791 67.0125 33.7893C66.5658 33.0274 66.2986 32.1755 66.2308 31.297C66.1484 30.3778 66.1075 29.4502 66.1081 28.5139V16.5621H61.0244V12.7868H66.1081V6.34851H70.5069V12.7854H76.8126V16.5607Z" fill="#201747"/>
<path d="M96.1204 18.8838C95.384 18.1034 94.5156 17.4564 93.5544 16.9719C92.5517 16.5143 91.4563 16.2909 90.3527 16.3189C89.2649 16.2941 88.1859 16.5175 87.1993 16.9719C86.3223 17.3924 85.5534 18.005 84.9509 18.7633C84.3362 19.5435 83.8724 20.4295 83.5828 21.3766C83.271 22.3717 83.1141 23.408 83.1177 24.4499C83.1118 25.482 83.294 26.5068 83.6556 27.4748C83.994 28.3945 84.5086 29.2408 85.1712 29.9672C85.8271 30.6801 86.6267 31.2488 87.5184 31.6366C88.4898 32.0526 89.5396 32.2589 90.5979 32.2418C91.6939 32.2722 92.782 32.0486 93.7752 31.5887C94.7062 31.1132 95.5358 30.464 96.2181 29.6769L99.3465 32.774C98.2672 33.9916 96.8981 34.9233 95.3631 35.4845C93.8198 36.0381 92.1896 36.3167 90.5481 36.3073C88.8696 36.3279 87.2025 36.0324 85.6354 35.4366C84.2022 34.8879 82.8968 34.0562 81.7985 32.9921C80.7082 31.922 79.8585 30.6358 79.3053 29.2178C78.7036 27.666 78.4052 26.0152 78.4258 24.3531C78.4068 22.6833 78.7052 21.0249 79.3053 19.4643C79.8476 18.035 80.6869 16.7345 81.7689 15.6466C82.8509 14.5588 84.1515 13.708 85.5865 13.1493C87.1658 12.534 88.8511 12.2295 90.5481 12.2529C92.2118 12.2475 93.8617 12.5516 95.412 13.1493C96.9509 13.7409 98.331 14.6765 99.4447 15.883L96.1204 18.8838Z" fill="#201747"/>
<path d="M101.252 15.5914C102.494 14.4605 103.958 13.5955 105.553 13.0507C107.122 12.4965 108.775 12.2101 110.441 12.2036C111.925 12.1726 113.403 12.3851 114.816 12.8325C115.925 13.1882 116.948 13.7651 117.823 14.5276C118.58 15.2021 119.173 16.0372 119.558 16.9706C119.931 17.8858 120.122 18.8639 120.12 19.8509V31.5632C120.12 32.3695 120.136 33.1116 120.168 33.7895C120.2 34.4674 120.249 35.1127 120.315 35.7255H116.404C116.306 34.5645 116.258 33.4028 116.258 32.2405H116.162C115.33 33.5943 114.126 34.6857 112.691 35.3869C111.229 36.0252 109.644 36.3389 108.047 36.306C107.005 36.3111 105.967 36.1645 104.968 35.8711C104.035 35.6034 103.164 35.1597 102.402 34.5645C101.668 33.9838 101.075 33.2477 100.666 32.4103C100.226 31.4798 100.008 30.4611 100.031 29.4337C99.9833 28.1206 100.332 26.8233 101.033 25.7073C101.728 24.682 102.668 23.8424 103.77 23.2629C105.039 22.596 106.409 22.1383 107.827 21.9078C109.465 21.6261 111.126 21.4885 112.789 21.4966H116.015V20.5282C116.012 19.9314 115.896 19.3405 115.673 18.7861C115.44 18.199 115.091 17.6641 114.646 17.213C114.161 16.727 113.578 16.3477 112.935 16.0998C112.155 15.809 111.326 15.6694 110.492 15.6886C109.744 15.6776 108.996 15.759 108.268 15.931C107.672 16.0781 107.091 16.2806 106.533 16.5357C106.031 16.7663 105.555 17.0503 105.115 17.3828C104.692 17.7056 104.284 18.012 103.893 18.3019L101.252 15.5914ZM113.668 24.6904C112.598 24.692 111.529 24.7487 110.466 24.8602C109.449 24.9568 108.447 25.1761 107.484 25.5133C106.656 25.7937 105.904 26.2571 105.284 26.8683C104.999 27.164 104.776 27.5134 104.629 27.8957C104.482 28.2781 104.414 28.6857 104.429 29.0946C104.429 30.4182 104.877 31.37 105.773 31.9502C106.876 32.5839 108.141 32.8867 109.414 32.822C110.473 32.8518 111.526 32.6448 112.493 32.2163C113.291 31.8528 113.994 31.3145 114.55 30.6422C115.066 30.006 115.449 29.2736 115.674 28.4885C115.898 27.7254 116.014 26.935 116.017 26.1403V24.6904H113.668Z" fill="#201747"/>
<path d="M122.615 12.7849H127.014V16.3192H127.11C127.715 15.0402 128.728 13.994 129.993 13.3422C131.448 12.563 133.082 12.1708 134.736 12.2039C135.824 12.2007 136.905 12.3722 137.937 12.7118C138.939 13.0358 139.856 13.5729 140.626 14.2855C141.431 15.0539 142.056 15.9873 142.459 17.0202C142.941 18.279 143.174 19.6182 143.143 20.9643V35.7258H138.744V22.1742C138.766 21.2437 138.617 20.3171 138.304 19.4395C138.054 18.7489 137.653 18.1212 137.131 17.6012C136.654 17.1402 136.077 16.7925 135.445 16.5843C134.806 16.3745 134.137 16.2683 133.465 16.2699C132.598 16.2619 131.737 16.4092 130.923 16.7048C130.138 16.9974 129.435 17.4702 128.87 18.0845C128.247 18.7774 127.78 19.5944 127.502 20.4805C127.154 21.5925 126.989 22.7525 127.013 23.9162V35.7258H122.613L122.615 12.7849Z" fill="#201747"/>
</svg>
